<svg version="1" xmlns="http://www.w3.org/2000/svg" width="453.333" height="453.333" viewBox="0 0 340.000000 340.000000"><path d="M99.9 44.8c1.9.9 4.2 3.2 5.2 5 1.7 3.2 1.7 3.5-.2 8-1.9 5-16.5 44.4-22.9 62.2-2.1 5.8-8.4 22.9-14 38-5.6 15.1-11.1 29.9-12.1 32.7-1.1 2.9-6.5 17.6-12 32.5-5.6 15-11.1 30.2-12.4 33.8-4.2 11.5-8.3 22.4-10 26.4-2 4.7-1.4 9.5 1.6 12.2 2 1.8 4.3 1.9 31.3 2.1 27.2.2 28.9.1 26-1.4-3.1-1.5-7.4-7.8-6.9-9.8 1.6-5.6 52.9-159.4 53.2-159.2.1.2.5 3.2.7 6.8.8 10.5 2 24.5 3.1 37.4.3 3.3.7 8.9 1 12.5.2 3.6.7 9.4.9 13 .3 3.6.8 9.6 1.1 13.3.2 3.7.7 9.1.9 12 .3 2.9.8 8.8 1.2 13.2.3 4.4.7 9.6.9 11.5.1 1.9.6 7.5 1 12.5.3 4.9.8 10.6 1 12.5.2 1.9.7 8.2 1 14 .4 5.8.9 10.8 1.2 11.3.2.4 9.1.7 19.7.7h19.3l18.8-43.7c10.4-24.1 20.1-46.6 21.7-50 1.5-3.4 2.8-6.4 2.8-6.7 0-.3 1.2-3.1 2.6-6.3 4-9 5.5-12.4 15-34.5 4.9-11.4 9-20.5 9.2-20.4.4.5 1.6 61.9 2.6 135.8.3 21.1.9 23.1 7.1 24.7 2.7.7 15.2 1.1 31.7 1.1h27.3l-3.2-2c-6-3.6-6.1-4.6-6.8-45.5-.9-54.3-1.5-85.7-2-109-.3-12.7-.7-37.4-1.1-55-.5-28.1-.8-32.5-2.4-36.2-3.1-7.2-3.4-7.2-40.6-7.2h-32.9l3.7 1.9c6.3 3.4 7.4 8.5 3.7 16.8-1.2 2.6-3.6 8.1-5.4 12.2-3.9 9.2-34.3 78.4-37.8 86-1.3 3-4.8 10.9-7.7 17.5-2.9 6.6-5.5 12.3-5.9 12.8-.4.4-.8-1.4-1-4-.1-2.7-.3-6.2-.6-7.8-.3-3.1-.8-8.5-2.9-34-.6-6.6-.9-10.3-2-22-.5-4.4-1.1-11.9-2.1-23.5-1.3-14.9-1.6-18.9-2-22-.2-1.9-.7-7.4-1-12.2-.3-4.9-.8-9.6-1-10.5-.8-4-3.6-9.3-5.4-10.3-1.3-.6-13.7-1-33.8-1-30.6.1-31.7.2-28.4 1.8z"/></svg>